HIERARCHY
ROOT Hips
{
    OFFSET 0.000000 0.000000 0.000000
    CHANNELS 6 Xposition Yposition Zposition Zrotation Xrotation Yrotation
        JOINT Chest
        {
            OFFSET -0.000000 31.804140 -0.000000
            CHANNELS 3 Zrotation Xrotation Yrotation
            JOINT Neck
            {
                OFFSET -0.000000 23.903318 0.000000
                CHANNELS 3 Zrotation Xrotation Yrotation
                JOINT Head
                {
                    OFFSET -0.000000 10.511110 0.000000
                    CHANNELS 3 Zrotation Xrotation Yrotation
                    End Site
                    {
                        OFFSET -0.000000 16.244448 0.000000
                    }
                }
            }
            JOINT LeftCollar
            {
                OFFSET -0.000000 23.903318 0.000000
                CHANNELS 3 Zrotation Xrotation Yrotation
                JOINT LeftShoulder
                {
                    OFFSET 20.500000 -0.000000 0.000000
                    CHANNELS 3 Zrotation Xrotation Yrotation
                    JOINT LeftElbow
                    {
                        OFFSET 20.922438 0.000000 0.000000
                        CHANNELS 3 Zrotation Xrotation Yrotation
                        JOINT LeftWrist
                        {
                            OFFSET 26.373112 0.000000 0.000000
                            CHANNELS 3 Zrotation Xrotation Yrotation
                            End Site
                            {
                                OFFSET 0.000000 -14.333333 0.000000
                            }
                        }
                    }
                }
            }
            JOINT RightCollar
            {
                OFFSET -0.000000 23.903318 0.000000
                CHANNELS 3 Zrotation Xrotation Yrotation
                JOINT RightShoulder
                {
                    OFFSET -20.500000 0.000000 0.000000
                    CHANNELS 3 Zrotation Xrotation Yrotation
                    JOINT RightElbow
                    {
                        OFFSET -20.922438 0.000000 0.000000
                        CHANNELS 3 Zrotation Xrotation Yrotation
                        JOINT RightWrist
                        {
                            OFFSET -26.373112 0.000000 0.000000
                            CHANNELS 3 Zrotation Xrotation Yrotation
                            End Site
                            {
                                OFFSET -0.000000 -14.333333 0.000000
                            }
                        }
                    }
                }
            }
        }
    JOINT LeftHip
    {
        OFFSET 11.466667 0.000000 0.000000
        CHANNELS 3 Zrotation Xrotation Yrotation
        JOINT LeftKnee
        {
            OFFSET -0.000000 -37.458855 0.000000
            CHANNELS 3 Zrotation Xrotation Yrotation
            JOINT LeftAnkle
            {
                OFFSET -0.000000 -39.235966 0.000000
                CHANNELS 3 Zrotation Xrotation Yrotation
                End Site
                {
                    OFFSET -0.000000 -4.777778 16.244448
                }
            }
        }
    }
    JOINT RightHip
    {
        OFFSET -11.466667 0.000000 0.000000
        CHANNELS 3 Zrotation Xrotation Yrotation
        JOINT RightKnee
        {
            OFFSET -0.000000 -37.458855 0.000000
            CHANNELS 3 Zrotation Xrotation Yrotation
            JOINT RightAnkle
            {
                OFFSET -0.000000 -39.235966 0.000000
                CHANNELS 3 Zrotation Xrotation Yrotation
                End Site
                {
                    OFFSET -0.000000 -4.777778 16.244448
                }
            }
        }
    }
}
MOTION
Frames:    14
Frame Time:    0.010000
118.869865    86.571693    -117.217018    10.207064    8.864047    -87.199234    -14.399259    22.661705    13.791245    -12.644759    -4.314300    15.442107    -12.633904    -22.061392    13.312069    -8.233020    0.135893    -1.613202    -53.488522    12.805944    -40.969852    19.483328    -5.412747    -30.939447    124.130554    27.154123    62.375099    10.464328    2.330921    25.407021    36.897354    31.623983    54.277210    -8.745455    -1.823076    23.259951    -98.565964    -11.839754    -8.196419    12.688234    -24.098228    0.880373    -2.753861    7.471083    10.682602    -1.339932    4.761795    18.016760    13.546605    -12.869857    -8.484112    0.735895    17.044624    -21.373360    1.588116    -16.790024    -11.281562    
118.868546    86.560654    -117.272102    10.100913    8.886566    -87.262863    -13.613250    22.315350    13.113773    -8.437642    1.881058    13.499907    -17.971329    -19.842436    10.204176    -8.111481    0.364715    -8.454912    -53.164883    12.828974    -37.692741    19.320541    -5.348779    -30.618050    124.260681    26.951889    62.282990    12.760833    2.835675    21.163063    37.075714    31.308838    52.778786    -9.250690    -1.976566    23.467728    -98.161491    -11.542129    -8.322929    12.778028    -23.957056    0.956173    -2.720814    7.470150    10.527842    -1.274618    4.749217    18.036224    13.637582    -12.732650    -8.347983    0.744613    16.977892    -21.452137    0.792096    -16.520037    -11.194995    
118.890488    86.541290    -117.297455    10.076208    8.880878    -87.391975    -13.793210    22.345171    13.390328    -8.498945    1.648444    13.588193    -17.920061    -20.109585    10.262225    -7.977686    0.459982    -8.200942    -53.263290    12.738868    -37.893620    19.518200    -5.419446    -30.704639    124.088722    27.052942    62.389149    12.798283    2.628605    21.380850    37.282017    31.479507    52.608459    -8.992403    -1.827818    23.227137    -98.235931    -11.697964    -8.349281    12.866578    -23.920679    1.018879    -2.748369    7.461016    10.686017    -1.307667    4.744808    18.014658    13.701287    -12.760916    -8.253598    0.708819    17.043121    -21.403591    0.641319    -16.470539    -11.148227    
118.911293    86.539116    -117.336632    10.035757    8.885568    -87.462204    -13.745058    22.342474    13.342588    -8.473856    1.726434    13.557838    -17.976189    -20.098879    10.218718    -8.009112    0.517414    -8.266331    -53.272106    12.773086    -37.871761    19.638891    -5.444786    -30.705996    123.998734    27.085833    62.416000    12.854279    2.530318    21.311075    37.447819    31.599606    52.429485    -8.876156    -1.821142    23.099628    -98.157623    -11.728809    -8.207407    12.932194    -23.866774    1.069004    -2.751190    7.459498    10.698812    -1.322494    4.740206    18.020746    13.752536    -12.733840    -8.178042    0.699647    17.050776    -21.404320    0.374454    -16.381199    -11.109825    
118.937813    86.538231    -117.382393    9.996300    8.890927    -87.536461    -13.713482    22.343386    13.304785    -8.560785    1.670285    13.586029    -17.928473    -20.098255    10.258353    -8.045978    0.550999    -8.154606    -53.304951    12.816422    -37.906952    19.718155    -5.468604    -30.661892    123.927765    27.069515    62.408257    12.824689    2.466749    21.361185    37.636139    31.683794    52.294983    -8.824356    -1.799117    22.989876    -97.961609    -11.770753    -8.038027    13.004967    -23.815657    1.119093    -2.756855    7.459077    10.715469    -1.340590    4.738291    18.030199    13.807262    -12.711273    -8.101427    0.690699    17.061583    -21.399502    0.124311    -16.297745    -11.075220    
118.968559    86.537743    -117.432663    9.960701    8.897004    -87.610680    -13.687287    22.337442    13.273148    -8.629374    1.653550    13.612969    -17.909721    -20.133883    10.283311    -8.076431    0.575320    -8.062756    -53.349728    12.853747    -37.918171    19.785118    -5.475558    -30.594376    123.834381    27.015366    62.393776    12.783884    2.408289    21.420990    37.871487    31.742315    52.134171    -8.860954    -1.777400    22.918379    -97.685463    -11.795070    -7.845659    13.082714    -23.771837    1.168383    -2.765632    7.460609    10.732205    -1.361319    4.739502    18.043934    13.863504    -12.696047    -8.028266    0.682712    17.075672    -21.387968    -0.094484    -16.225475    -11.047818    
119.001816    86.536919    -117.485497    9.930956    8.903975    -87.681801    -13.666480    22.322580    13.245796    -8.679556    1.681103    13.638581    -17.921722    -20.216923    10.290255    -8.105676    0.551191    -7.993412    -53.401051    12.913507    -37.876274    19.888803    -5.490584    -30.560198    123.711082    26.974606    62.383667    12.712495    2.417072    21.489208    38.175804    31.717207    51.967300    -8.797609    -1.787896    22.793726    -97.414360    -11.849200    -7.504162    13.163568    -23.738089    1.217222    -2.777287    7.464459    10.745355    -1.383931    4.743772    18.062023    13.919642    -12.689677    -7.962347    0.676545    17.092875    -21.368952    -0.272266    -16.168137    -11.029842    
119.035866    86.535202    -117.539299    9.907479    8.911530    -87.747726    -13.650557    22.299578    13.221104    -8.714449    1.747542    13.662529    -17.957869    -20.341038    10.281787    -8.119509    0.581377    -7.944643    -53.458477    12.921102    -37.854069    19.871529    -5.480459    -30.422483    123.661537    26.845695    62.323799    12.643723    2.426805    21.559946    38.472794    31.680502    51.798279    -8.833589    -1.802982    22.722679    -97.056679    -11.887244    -7.180240    13.245671    -23.714203    1.265703    -2.791820    7.469420    10.753609    -1.407246    4.751061    18.083479    13.974276    -12.691946    -7.905640    0.672635    17.112797    -21.343220    -0.402994    -16.128086    -11.022234    
119.069183    86.532249    -117.592918    9.889966    8.919408    -87.808037    -13.639493    22.270344    13.197990    -8.735702    1.843752    13.683619    -18.011072    -20.493799    10.260563    -8.133572    0.555089    -7.914615    -53.503605    12.968037    -37.784378    19.959057    -5.508654    -30.391407    123.527939    26.774284    62.295467    12.593588    2.428257    21.623045    38.744995    31.651043    51.630730    -8.877450    -1.821312    22.657042    -96.714172    -11.909564    -6.869138    13.327858    -23.698288    1.314243    -2.809066    7.473886    10.758245    -1.430148    4.760595    18.106049    14.026877    -12.701956    -7.859427    0.670392    17.135386    -21.311255    -0.487672    -16.105270    -11.023899    
119.100487    86.527931    -117.645859    9.875660    8.927505    -87.864388    -13.633274    22.239414    13.178083    -8.747718    1.953445    13.701788    -18.069481    -20.657183    10.232419    -8.134463    0.575185    -7.897479    -53.549526    12.971958    -37.735432    19.957582    -5.456548    -30.257305    123.419350    26.644060    62.288631    12.580760    2.401887    21.669989    38.944355    31.659592    51.479130    -8.951220    -1.804125    22.603531    -96.382866    -11.911513    -6.651882    13.410051    -23.684877    1.364169    -2.828335    7.475875    10.761793    -1.453570    4.770359    18.127277    14.078170    -12.716241    -7.822220    0.668664    17.160374    -21.276548    -0.533798    -16.096840    -11.029950    
119.128944    86.522240    -117.698334    9.860050    8.935889    -87.920479    -13.632642    22.213436    13.164786    -8.752525    2.056187    13.715352    -18.119736    -20.805407    10.204269    -8.135743    0.547118    -7.890275    -53.581959    13.007909    -37.651234    20.021885    -5.470963    -30.222643    123.316574    26.595879    62.275551    12.576732    2.437160    21.695183    39.059425    31.633869    51.401871    -8.887788    -1.747529    22.466585    -96.155136    -11.927760    -6.457891    13.493575    -23.665741    1.418181    -2.848779    7.472449    10.766239    -1.480625    4.777870    18.146395    14.130415    -12.729881    -7.789228    0.665252    17.187744    -21.246008    -0.548514    -16.099123    -11.033048    
119.154549    86.515388    -117.751190    9.838555    8.944876    -87.980888    -13.637979    22.197950    13.162249    -8.749662    2.126614    13.721989    -18.146265    -20.901108    10.185034    -8.124846    0.573852    -7.892777    -53.616547    12.986547    -37.595551    19.983459    -5.416378    -30.096455    123.246452    26.483482    62.268639    12.625620    2.426483    21.693146    39.015423    31.682148    51.377567    -8.917910    -1.797036    22.419594    -95.936577    -11.868205    -6.329195    13.580648    -23.632479    1.475996    -2.869727    7.459728    10.776387    -1.515980    4.781507    18.164400    14.186669    -12.738533    -7.754022    0.658123    17.217791    -21.227417    -0.535119    -16.109489    -11.026472    
119.177994    86.507782    -117.805267    9.808633    8.954596    -88.048798    -13.648896    22.196074    13.171239    -8.735976    2.140079    13.720381    -18.135353    -20.904335    10.183977    -8.115193    0.572512    -7.905740    -53.643715    12.966322    -37.514099    19.968666    -5.453571    -30.074745    123.238037    26.443485    62.206196    12.690866    2.452398    21.666742    38.890488    31.723280    51.412807    -8.848953    -1.738438    22.295889    -95.769707    -11.836709    -6.302197    13.672809    -23.580250    1.532287    -2.891469    7.434838    10.799933    -1.562832    4.780160    18.183046    14.249265    -12.740101    -7.709943    0.645790    17.250574    -21.228781    -0.496748    -16.125134    -11.004612    
119.199844    86.499962    -117.860939    9.768152    8.964867    -88.124420    -13.664223    22.210676    13.189384    -8.706316    2.082184    13.708577    -18.083433    -20.789543    10.205877    -8.108635    0.537006    -7.931634    -53.682358    12.935246    -37.390831    19.976305    -5.412256    -30.078167    123.157372    26.417156    62.217045    12.788809    2.454361    21.617714    38.652409    31.813917    51.491356    -8.822307    -1.757765    22.225254    -95.659126    -11.737707    -6.320848    13.770367    -23.506317    1.581337    -2.915370    7.396461    10.840503    -1.622065    4.773413    18.205301    14.318590    -12.731964    -7.653132    0.628529    17.284674    -21.254864    -0.442179    -16.142244    -10.965137    
